<svg xmlns="http://www.w3.org/2000/svg" width="134.142" height="134.142" viewBox="0 0 134.142 134.142">
  <g id="Polygone_2" data-name="Polygone 2" transform="translate(127.071 7.071) rotate(90)" fill="#933e6a">
    <path d="M 60 123.535530090332 L 58.23223495483398 121.7677688598633 L -1.767763614654541 61.76776885986328 L -3.535527229309082 60.00000381469727 L -1.767763614654541 58.23223876953125 L 58.23223495483398 -1.767759799957275 L 60 -3.535523414611816 L 61.76776504516602 -1.767759799957275 L 121.7677612304688 58.23223876953125 L 123.535530090332 60.00000381469727 L 121.7677612304688 61.76776885986328 L 61.76776504516602 121.7677688598633 L 60 123.535530090332 Z" stroke="none"/>
    <path d="M 60 7.62939453125e-06 L 0 60.00000381469727 L 60 120 L 120 60.00000381469727 L 60 7.62939453125e-06 M 60 -7.071052551269531 L 63.53554153442383 -3.535537719726563 L 123.5355377197266 56.46446228027344 L 127.0710601806641 60.00000381469727 L 123.5355377197266 63.53554534912109 L 63.53554153442383 123.5355453491211 L 60 127.0710601806641 L 56.46445846557617 123.5355453491211 L -3.535537719726563 63.53554534912109 L -7.071060180664063 60.00000381469727 L -3.535537719726563 56.46446228027344 L 56.46445846557617 -3.535537719726563 L 60 -7.071052551269531 Z" stroke="none" fill="#fff"/>
  </g>
</svg>
