<svg xmlns="http://www.w3.org/2000/svg" width="2181" height="412" viewBox="0 0 2181 412" fill="none"><path d="M464.993 9.12671C447.557 9.12671 434.769 22.5043 434.769 39.346C434.769 57.3705 446.966 70.1566 464.43 70.1566C481.894 70.1566 495.245 57.3705 495.245 39.346C495.245 22.4761 481.865 9.12671 465.021 9.12671H464.993Z" fill="#16252F"></path><path d="M1405.63 9.12671C1388.19 9.12671 1375.4 22.5043 1375.4 39.346C1375.4 57.3705 1387.6 70.1566 1405.06 70.1566C1422.53 70.1566 1435.88 57.3705 1435.88 39.346C1435.88 22.4761 1422.5 9.12671 1405.65 9.12671H1405.63Z" fill="#16252F"></path><path d="M207.737 119.752H130.332C127.081 119.752 124.445 122.387 124.445 125.638V402.766C124.445 406.016 127.081 408.652 130.332 408.652H207.737C210.988 408.652 213.624 406.016 213.624 402.766V125.638C213.624 122.387 210.988 119.752 207.737 119.752Z" fill="#1861F5"></path><path d="M0 305.743V358.493C0 386.177 22.4497 408.624 50.1386 408.624H83.292C86.5313 408.624 89.1791 406.004 89.1791 402.737V125.61C89.1791 122.371 86.5595 119.724 83.292 119.724H5.88706C2.64777 119.724 0 122.343 0 125.61V305.743Z" fill="#1861F5"></path><path d="M248.89 125.976V402.766C248.89 406.004 251.51 408.652 254.777 408.652H332.21C335.45 408.652 338.097 406.033 338.097 402.766V222.632C338.097 160.025 309 123.892 255.284 120.118C251.848 119.864 248.918 122.54 248.918 126.004L248.89 125.976Z" fill="#1861F5"></path><path d="M479.612 121.892H442.318V365.449C442.318 390.487 462.627 410.792 487.668 410.792V129.947C487.668 125.497 484.063 121.892 479.612 121.892Z" fill="#16252F"></path><path d="M666.336 121.892H546.172V410.792H591.523V160.842H655.294C704.137 160.842 713.433 184.668 713.433 227.702V410.792H758.783V224.773C758.783 158.505 726.221 121.892 666.336 121.892Z" fill="#16252F"></path><path d="M1087.56 375.926C1025.93 375.926 1002.69 332.921 1000.35 285.24C1005 285.24 1009.64 285.832 1015.48 285.832C1071.87 285.832 1175.36 271.89 1175.36 185.851C1175.36 142.846 1144.54 113.781 1090.49 113.781C1002.12 113.781 955.619 184.696 955.619 270.735C955.619 356.775 993.983 411.975 1084.68 411.975C1131.19 411.975 1164.91 391.05 1179.44 378.855L1162 349.199C1150.96 357.338 1126.54 375.926 1087.58 375.926H1087.56ZM1088.15 147.493C1114.32 147.493 1132.91 163.771 1132.91 191.089C1132.91 243.417 1051.5 252.711 1011.98 252.711C1007.33 252.711 1003.84 252.119 1000.35 252.119C1002.1 206.185 1025.93 147.493 1088.15 147.493Z" fill="#16252F"></path><path d="M1292.65 375.926C1263.58 375.926 1256.03 368.378 1256.03 329.428V38.1628C1256.03 20.8425 1241.97 6.78906 1224.65 6.78906H1211.27V328.809C1211.27 367.167 1214.76 411.919 1282.79 411.919C1306.62 411.919 1329.88 405.526 1342.08 397.386L1331.63 365.984C1320 371.786 1306.05 375.87 1292.67 375.87V375.926H1292.65Z" fill="#16252F"></path><path d="M1420.22 121.892H1382.92V365.449C1382.92 390.487 1403.23 410.792 1428.27 410.792V129.947C1428.27 125.497 1424.67 121.892 1420.22 121.892Z" fill="#16252F"></path><path d="M893.734 376.489C866.412 376.489 851.286 364.295 851.286 325.908V160.814H918.071C921.987 160.814 925.31 158.026 926.015 154.167L931.789 121.864H851.286V38.1628C851.286 20.8425 837.23 6.78906 819.907 6.78906H805.936V324.753C805.936 367.195 808.273 411.947 885.594 411.947C908.86 411.947 934.437 404.399 951.281 392.768L937.901 362.548C928.015 368.35 913.48 376.489 893.706 376.489H893.734Z" fill="#16252F"></path><path d="M1912.79 226.857C1917.63 134.425 1851.66 117.583 1812.12 117.583C1750.48 117.583 1668.57 138.762 1642.49 259.075C1638.66 276.509 1637.73 283.494 1636.97 298.026C1633.17 370.688 1669.42 410.792 1737.44 410.792C1814.76 410.792 1884.48 378.235 1907.86 264.905C1911.04 248.627 1912.08 239.671 1912.76 226.885H1912.79V226.857ZM1840.54 229.729C1839.83 243.107 1838.85 250.908 1835.02 268.341C1821.38 328.781 1793.02 359.591 1750.6 359.591C1715.13 359.591 1706.06 332.864 1707.89 297.97C1708.71 282.283 1710.4 272.397 1714.18 255.527C1726.99 199.735 1755.92 168.671 1798.37 168.671C1830.93 168.671 1842.48 192.498 1840.51 229.701L1840.54 229.729Z" fill="#16252F"></path><path d="M2176.18 121.892H2114.41C2113.03 121.892 2111.74 122.512 2110.89 123.554L2038.53 211.395L2010.67 148.507C2003.49 132.313 1987.46 121.864 1969.74 121.864H1929.1L1993.74 257.893L1871.04 403.245C1868.54 406.23 1870.65 410.764 1874.54 410.764H1938.7C1940.05 410.764 1941.35 410.145 1942.22 409.103L2023.4 310.785L2054.19 376.968C2063.77 397.584 2084.44 410.764 2107.17 410.764H2141.99L2069.32 259.048L2179.65 129.412C2182.18 126.455 2180.07 121.864 2176.16 121.864H2176.18V121.892Z" fill="#16252F"></path><path d="M1644.69 171.037C1646.97 170.981 1649.11 169.967 1650.6 168.221L1673.9 123.16C1676.32 120.315 1674.29 115.95 1670.57 115.95L1610.74 116.034C1607.67 116.034 1605.36 113.218 1606.01 110.205L1606.58 107.529C1609.87 91.1662 1619.65 77.3944 1633.22 69.8748L1633.81 69.565C1651.02 60.1584 1673.61 58.018 1693.25 63.2282C1702.77 65.7629 1712.8 61.7356 1717.47 53.0613L1735.87 19.6034C1736.71 18.0262 1736.12 16.0548 1734.51 15.2381C1692.94 -5.74355 1640.35 -5.03947 1599.65 17.2377L1598.91 17.632C1568.97 34.2201 1547.65 63.1437 1539.96 97.3058L1481.57 410.764H1491.82C1524.86 410.764 1553.87 386.797 1559.17 354.156L1592.66 176.05C1593.17 173.318 1595.56 171.319 1598.35 171.291C1611 171.234 1644.35 171.065 1644.69 170.953V171.037Z" fill="#16252F"></path></svg>